<?xml version="1.0" encoding="UTF-8" standalone="no"?>
<svg
   xmlns:dc="http://purl.org/dc/elements/1.1/"
   xmlns:cc="http://creativecommons.org/ns#"
   xmlns:rdf="http://www.w3.org/1999/02/22-rdf-syntax-ns#"
   xmlns:svg="http://www.w3.org/2000/svg"
   xmlns="http://www.w3.org/2000/svg"
   viewBox="0 0 847.15857 743.62268"
   height="743.62268"
   width="847.15857"
   xml:space="preserve"
   version="1.1"
   id="svg7882"><metadata
     id="metadata7888"><rdf:RDF><cc:Work
         rdf:about=""><dc:format>image/svg+xml</dc:format><dc:type
           rdf:resource="http://purl.org/dc/dcmitype/StillImage" /><dc:title></dc:title></cc:Work></rdf:RDF></metadata><defs
     id="defs7886" /><g
     transform="matrix(1.25,0,0,-1.25,0,743.62267)"
     id="g7890"><g
       id="g7892"><path
         id="path7894"
         style="fill:#ffffff;fill-opacity:1;fill-rule:nonzero;stroke:none"
         d="m 338.867,594.5 c -7.512,0 -15.027,-2.867 -20.758,-8.598 -1.879,-1.879 -3.445,-3.953 -4.707,-6.152 l -15.246,-26.157 -0.07,0 L 4.984,45.554 C 4.93,45.457 4.887,45.359 4.832,45.261 3.344,42.867 2.176,40.218 1.406,37.351 -2.789,21.695 6.504,5.597 22.164,1.402 c 2.586,-0.695 5.184,-1.012 7.738,-1 l 618.067,0 c 16.215,0 29.355,13.141 29.355,29.356 0,5.304 -1.414,10.281 -3.879,14.578 -0.019,0.031 -0.035,0.062 -0.05,0.097 l -304.368,528.41 c -3.863,6.665 -5.652,9.305 -9.406,13.059 -5.73,5.731 -13.242,8.598 -20.754,8.598 z" /><path
         id="path7896"
         style="fill:#c1121c;fill-opacity:1;fill-rule:nonzero;stroke:none"
         d="m 338.867,587.144 c -7.125,0.051 -14.949,-3.59 -18.781,-10.406 L 10.793,40.847 C 9.008,37.199 8.258,34.027 8.234,30.398 c 0,-6.496 2.875,-12.66 7.848,-16.84 4.383,-3.394 8.535,-5.16 14.121,-5.16 l 617.906,0 c 3.77,-0.035 7.547,0.871 10.977,3.133 6.453,3.898 10.402,10.883 10.41,18.426 -0.184,3.894 -1.144,8 -2.879,10.89 L 357.504,576.828 c -0.027,0.047 -0.059,0.094 -0.09,0.14 -0.031,0.047 -0.062,0.094 -0.094,0.145 -1.097,1.754 -2.472,3.305 -4.039,4.633 -3.59,3.109 -8.086,4.976 -12.824,5.316 -0.531,0.047 -1.062,0.078 -1.59,0.082 z M 30.203,8.398 l -1.523,0 1.554,0 -0.031,0 z M 338.547,480.933 574.25,72.398 l -471.738,0 236.035,408.535 z" /><path
         id="path7898"
         style="fill:#000000;fill-opacity:1;fill-rule:nonzero;stroke:none"
         d="m 338.867,594.898 c -7.617,0 -15.23,-2.906 -21.039,-8.715 -1.906,-1.902 -3.492,-4.008 -4.773,-6.234 l -15.129,-25.957 -0.071,0 L 4.641,45.754 C 4.574,45.636 4.527,45.535 4.48,45.453 2.977,43.031 1.797,40.351 1.02,37.457 -3.23,21.586 6.191,5.269 22.059,1.015 24.68,0.312 27.316,-0.008 29.902,0 l 618.067,0 c 16.429,0 29.758,13.328 29.758,29.758 0,5.375 -1.438,10.417 -3.934,14.773 -0.012,0.019 -0.027,0.051 -0.051,0.098 L 369.379,573.043 c -3.871,6.668 -5.695,9.363 -9.469,13.14 -5.808,5.809 -13.426,8.715 -21.039,8.715 l -0.004,0 z m 0,-0.398 c 7.512,0 15.024,-2.867 20.754,-8.598 3.754,-3.754 5.543,-6.394 9.406,-13.059 L 673.391,44.433 c 0.019,-0.035 0.035,-0.066 0.054,-0.097 2.465,-4.297 3.879,-9.274 3.879,-14.578 0,-16.215 -13.14,-29.356 -29.355,-29.356 l -618.067,0 C 27.348,0.39 24.75,0.707 22.164,1.402 6.504,5.597 -2.789,21.695 1.406,37.351 c 0.766,2.867 1.938,5.516 3.426,7.91 0.055,0.098 0.098,0.196 0.152,0.293 l 293.102,508.039 0.07,0 15.246,26.157 c 1.262,2.199 2.828,4.273 4.707,6.152 5.731,5.731 13.243,8.598 20.758,8.598 z" /><path
         id="path7900"
         style="fill:#000000;fill-opacity:1;fill-rule:nonzero;stroke:none"
         d="m 302.148,173.195 c 2.305,0 4.188,-0.941 4.188,-2.09 0,-1.039 -1.516,-1.933 -3.543,-2.074 l -9.281,-0.723 c -52.778,-4.086 -87.844,-14.707 -87.844,-26.57 0,-3.707 3.898,-7.117 10.254,-9.02 l 1.191,-0.343 c 1.774,-0.535 2.789,-2.391 2.25,-4.18 -0.347,-1.227 -1.394,-2.141 -2.648,-2.355 l -1.836,-0.301 c -14.551,-2.422 -29.508,2.871 -33.438,11.847 -0.625,1.411 -0.933,2.879 -0.933,4.352 0,17.375 54.453,31.457 121.64,31.457 M 220.238,90.41 c -7.531,0 -15.047,0.754 -22.429,2.234 -3.957,0.813 -6.536,4.684 -5.727,8.66 0.805,3.973 4.664,6.532 8.645,5.735 0.168,-0.031 0.335,-0.078 0.496,-0.129 l 3.511,-0.957 c 7.09,-1.965 14.43,-2.973 21.801,-2.973 25.488,0 46.141,5.93 46.141,15.168 0,3.172 -3.52,4.559 -9.379,6.274 l -7.727,2.324 c -7.586,2.25 -9.054,6.379 -9.054,10.812 0,14.457 40.929,24.606 95.371,24.606 2.316,0 4.195,-0.942 4.195,-2.102 0,-1.039 -1.477,-1.902 -3.52,-2.062 l -6.679,-0.551 c -41.903,-3.453 -64.695,-10.383 -64.695,-19.891 0,-3.175 0.32,-4.515 6.175,-6.273 l 7.715,-2.309 c 7.606,-2.265 10.672,-6.363 10.672,-10.828 0,-16.183 -33.805,-27.738 -75.512,-27.738 z m 139.914,67.113 c 1.571,0 2.864,-0.644 2.864,-1.43 0,-0.488 -0.508,-0.945 -1.356,-1.195 l -2.875,-0.91 c -6.898,-2.172 -11.211,-6.457 -11.211,-11.141 0,-10.593 18.93,-19.519 44.133,-20.824 l 47.453,-0.848 c 31.695,-0.144 42.613,-9.914 42.613,-18.195 0,-6.945 -12.195,-12.57 -27.246,-12.57 -0.472,0 -0.832,0.379 -0.832,0.848 0,0.218 0.09,0.457 0.25,0.613 l 1.711,1.554 c 1.985,1.84 3.047,4.086 3.047,6.426 0,6.442 -11.406,11.864 -26.394,12.508 l -53.145,2.293 c -29.867,1.309 -52.574,11.648 -52.574,23.996 0,10.402 15.027,18.875 33.562,18.875 z" /><path
         id="path7902"
         style="fill:#000000;fill-opacity:1;fill-rule:nonzero;stroke:none"
         d="m 243.867,279.55 c 0.883,2.829 2.664,5.278 5.055,7.012 l 3.707,2.633 c 2.578,1.867 4.941,4.043 7.035,6.449 l 29.586,34.067 c 2.969,3.41 7.691,4.734 12.004,3.394 l 108.562,-34.152 c 4.336,-1.36 7.45,-5.141 7.926,-9.633 l 4.762,-44.891 c 0.348,-3.179 1.039,-6.281 2.098,-9.285 l 1.531,-4.293 c 0.969,-2.785 1.023,-5.824 0.125,-8.656 l -8.86,-28.207 c -1.894,-5.996 -8.273,-9.336 -14.265,-7.445 l -160.703,50.5 c -6,1.91 -9.332,8.285 -7.45,14.3 l 8.887,28.207 z m 26.082,10.899 141.153,-44.379 -4.153,39.004 c -0.176,1.785 -1.418,3.301 -3.16,3.879 l -103.32,32.469 c -1.735,0.539 -3.606,0.011 -4.801,-1.356 l -25.719,-29.617 z m -28.89,-57.727 -7.5,-23.886 c -1.133,-3.598 0.855,-7.438 4.464,-8.559 l 13.024,-4.117 c 3.59,-1.117 7.43,0.887 8.555,4.484 l 7.523,23.883 -26.066,8.195 z m 134.648,-42.336 26.047,-8.195 -7.504,-23.883 c -1.137,-3.601 -4.977,-5.601 -8.578,-4.48 l -13.012,4.113 c -3.598,1.121 -5.617,4.961 -4.465,8.559 l 7.512,23.886 z" /></g></g></svg>